Coordinates
version=1
nRows=65
nColumns=12
inDegrees=yes

Units are S.I. units (second, meters, Newtons, ...)
Angles are in degrees

endheader
time	SC_y	SC_z	SC_x	AC_y	AC_z	AC_x	GH_y	GH_z	GH_yy	EL_x	PS_y
       0.0              -38.43          32.39          39.53          30.53          9.737         -15.68         -152.5          42.24         -177.6          9.168          136.4
   0.02784              -38.42          32.39          39.53          30.54          9.734         -15.68         -152.5          42.24         -177.5          9.176          136.4
   0.05568              -38.42          32.39          39.53          30.54          9.731         -15.67         -152.4          42.25         -177.5          9.184          136.4
   0.08352              -38.42          32.38          39.53          30.54          9.727         -15.67         -152.4          42.26         -177.5          9.192          136.4
    0.1114              -38.42          32.38          39.53          30.55          9.724         -15.66         -152.4          42.26         -177.4          9.201          136.3
    0.1392              -38.41          32.38          39.53          30.55           9.72         -15.65         -152.4          42.27         -177.4          9.211          136.3
     0.167              -38.41          32.38          39.54          30.56          9.716         -15.65         -152.4          42.28         -177.3          9.222          136.3
    0.1949              -38.41          32.38          39.54          30.56          9.712         -15.64         -152.4          42.29         -177.3          9.233          136.3
    0.2227               -38.4          32.37          39.54          30.57          9.707         -15.63         -152.4           42.3         -177.3          9.245          136.3
    0.2506               -38.4          32.37          39.54          30.57          9.702         -15.62         -152.4          42.31         -177.2          9.257          136.2
    0.2784              -38.39          32.37          39.54          30.58          9.697         -15.62         -152.3          42.32         -177.2          9.271          136.2
    0.3062              -38.39          32.37          39.54          30.58          9.691         -15.61         -152.3          42.33         -177.1          9.286          136.2
    0.3341              -38.39          32.36          39.54          30.59          9.685          -15.6         -152.3          42.34         -177.0          9.302          136.2
    0.3619              -38.38          32.36          39.54           30.6          9.678         -15.58         -152.3          42.35         -177.0          9.319          136.1
    0.3898              -38.37          32.35          39.55          30.61          9.671         -15.57         -152.3          42.37         -176.9          9.338          136.1
    0.4176              -38.37          32.35          39.55          30.62          9.663         -15.56         -152.2          42.38         -176.8          9.358          136.1
    0.4454              -38.36          32.35          39.55          30.63          9.655         -15.55         -152.2           42.4         -176.7           9.38          136.0
    0.4733              -38.35          32.34          39.55          30.64          9.646         -15.53         -152.2          42.42         -176.6          9.404          136.0
    0.5011              -38.35          32.34          39.55          30.65          9.635         -15.51         -152.1          42.44         -176.5           9.43          135.9
     0.529              -38.34          32.33          39.56          30.66          9.624          -15.5         -152.1          42.46         -176.4          9.458          135.9
    0.5568              -38.33          32.32          39.56          30.67          9.612         -15.48         -152.1          42.49         -176.3           9.49          135.8
    0.5846              -38.32          32.32          39.56          30.69          9.599         -15.45         -152.0          42.51         -176.1          9.524          135.8
    0.6125              -38.31          32.31          39.56          30.71          9.584         -15.43         -152.0          42.54         -176.0          9.562          135.7
    0.6403              -38.29           32.3          39.57          30.73          9.568          -15.4         -151.9          42.57         -175.8          9.605          135.7
    0.6682              -38.28          32.29          39.57          30.75           9.55         -15.37         -151.9          42.61         -175.6          9.652          135.6
     0.696              -38.26          32.28          39.58          30.77          9.529         -15.34         -151.8          42.65         -175.4          9.704          135.5
    0.7238              -38.25          32.27          39.58           30.8          9.507          -15.3         -151.7           42.7         -175.2          9.763          135.4
    0.7517              -38.23          32.26          39.59          30.82          9.481         -15.26         -151.7          42.75         -174.9          9.829          135.3
    0.7795               -38.2          32.24          39.59          30.86          9.452         -15.21         -151.6          42.81         -174.6          9.904          135.1
    0.8074              -38.18          32.22           39.6           30.9           9.42         -15.15         -151.5          42.87         -174.3          9.988          135.0
    0.8352              -38.15           32.2          39.61          30.94          9.382         -15.09         -151.3          42.95         -173.9          10.09          134.8
     0.863              -38.11          32.18          39.62          30.99          9.339         -15.02         -151.2          43.03         -173.5           10.2          134.7
    0.8909              -38.07          32.16          39.63          31.04           9.29         -14.94         -151.0          43.13         -173.0          10.32          134.4
    0.9187              -38.03          32.13          39.64          31.11          9.232         -14.84         -150.9          43.25         -172.4          10.47          134.2
    0.9465              -37.98          32.09          39.66          31.19          9.165         -14.73         -150.6          43.38         -171.7          10.65          133.9
    0.9744              -37.91          32.05          39.67          31.28          9.085          -14.6         -150.4          43.54         -170.9          10.85          133.5
     1.002              -37.84           32.0           39.7          31.39          8.991         -14.44         -150.1          43.73         -169.9           11.1          133.1
      1.03              -37.75          31.94          39.72          31.52          8.878         -14.26         -149.7          43.95         -168.8          11.39          132.6
     1.058              -37.64          31.87          39.75          31.67          8.741         -14.03         -149.3          44.23         -167.3          11.74          132.0
     1.086              -37.51          31.78          39.79          31.86          8.574         -13.75         -148.8          44.56         -165.6          12.18          131.3
     1.114              -37.35          31.68          39.83           32.1          8.368         -13.41         -148.1          44.97         -163.5          12.71          130.4
     1.141              -37.14          31.54          39.89          32.39           8.11         -12.98         -147.3          45.49         -160.9          13.38          129.3
     1.169              -36.89          31.37          39.96          32.77          7.786         -12.44         -146.3          46.13         -157.6          14.21          127.8
     1.197              -36.56          31.16          40.05          33.24          7.374         -11.76         -144.9          46.96         -153.3          15.28          126.0
     1.225              -36.15          30.88          40.17          33.84          6.847         -10.88         -143.3          48.01         -147.9          16.64          123.7
     1.253              -35.62          30.53          40.32          34.62           6.17         -9.757         -141.1          49.36         -141.0           18.4          120.8
     1.281              -34.93          30.08          40.51          35.61          5.306         -8.322         -138.4          51.09         -132.1          20.63          117.0
     1.308              -34.08          29.52          40.75          36.85          4.219         -6.516         -134.9          53.26         -121.0          23.44          112.2
     1.336              -33.03          28.83          41.04          38.37          2.894         -4.316         -130.7          55.91         -107.4          26.87          106.4
     1.364              -31.82          28.03          41.38          40.13          1.359         -1.766         -125.8          58.98         -91.62          30.84           99.7
     1.392              -30.51          27.16          41.75          42.03        -0.3037         0.9955         -120.5           62.3         -74.57          35.14          92.42
      1.42               -29.2          26.29          42.12          43.93         -1.966          3.757         -115.2          65.62         -57.52          39.44          85.14
     1.448              -27.99          25.49          42.45          45.69         -3.502          6.307         -110.3          68.69         -41.77          43.42          78.42
     1.476              -26.95           24.8          42.75          47.21         -4.826          8.507         -106.1          71.34         -28.18          46.84          72.61
     1.503              -26.09          24.24          42.99          48.45         -5.913          10.31         -102.6          73.51         -17.03          49.66          67.85
     1.531              -25.41          23.79          43.18          49.44         -6.778          11.75         -99.89          75.24         -8.166          51.89          64.07
     1.559              -24.88          23.44          43.33          50.22         -7.454          12.87         -97.74          76.59         -1.225          53.64           61.1
     1.587              -24.46          23.16          43.44          50.82         -7.982          13.75         -96.06          77.65          4.185          55.01           58.8
     1.615              -24.14          22.95          43.53           51.3         -8.394          14.43         -94.75          78.47          8.411          56.07          56.99
     1.643              -23.88          22.78          43.61          51.67         -8.718          14.97         -93.72          79.12          11.74          56.91          55.57
      1.67              -23.68          22.64          43.66          51.96         -8.975           15.4          -92.9          79.63          14.37          57.58          54.44
     1.698              -23.52          22.54          43.71           52.2         -9.181          15.74         -92.24          80.04          16.49          58.11          53.54
     1.726              -23.38          22.45          43.75          52.39         -9.349          16.02         -91.71          80.38          18.21          58.54          52.81
     1.754              -23.28          22.38          43.78          52.55         -9.485          16.25         -91.27          80.65          19.61           58.9          52.21
     1.782              -23.19          22.32           43.8          52.67         -9.598          16.43         -90.91          80.88          20.77          59.19          51.71
